# xmcd
#
# Track frame offsets:
#	150
#	15476
#	29668
#	45644
#	57873
#	82248
#	119684
#	132348
#	146310
#	158922
#
# Disc length: 2374 seconds
#
# Revision: 1
# Processed by: cddbd v1.5.1PL0 Copyright (c) Steve Scherf et al.
# Submitted via: audiograbber 1.80
#
DISCID=8909440a
DTITLE=Kevin Welch - Kevin Welch
DYEAR=1900
DGENRE=
TTITLE0=True Love Never Dies
TTITLE1=Praying For Rain
TTITLE2=Hello, I'm Gone
TTITLE3=Till I See You Again
TTITLE4=Some Kind Of Paradise
TTITLE5=The Mother Road
TTITLE6=Long Way Home
TTITLE7=I Am No Drifter
TTITLE8=I Came Straight To You
TTITLE9=A Letter To Dustin
EXTD=
EXTT0=
EXTT1=
EXTT2=
EXTT3=
EXTT4=
EXTT5=
EXTT6=
EXTT7=
EXTT8=
EXTT9=
PLAYORDER=
